# File created by Blade
# Date/Time:  Thu Jan 22 15:50:06 2015
#---------------------------------------------------------
:version 1.10
:name HOM
:units
  mass 1.0
  length 1.000000
  angle deg
:documentation
     Acclaim Skeleton File
:root
   axis xyz
   order TX TY TZ RX RY RZ
   position 0.000000 0.000000 0.000000
   orientation 0 0 0
:bonedata
   begin
      id 1
      name RightUpLeg_dum
      direction -1.000000 0.000000 0.000000
      length 3.766986
      axis 0.0 0.0 0.0 xyz
   end
   begin
      id 2
      name LeftUpLeg_dum
      direction 1.000000 0.000000 0.000000
      length 3.766986
      axis 0.0 0.0 0.0 xyz
   end
   begin
      id 3
      name Spine_dum
      direction 0.000000 1.000000 0.000000
      length 7.779697
      axis 0.0 0.0 0.0 xyz
   end
   begin
      id 4
      name RightUpLeg
      direction 0.000000 -1.000000 0.000000
      length 18.017682
      axis 0.0 0.0 0.0 xyz
      dof rx ry rz
   end
   begin
      id 5
      name RightLeg
      direction 0.000000 -1.000000 0.000000
      length 16.881075
      axis 0.0 0.0 0.0 xyz
      dof rx ry rz
   end
   begin
      id 6
      name RightFoot
      direction 0.000000 -0.258819 0.965926
      length 5.770812
      axis 15.0 0.0 0.0 xyz
      dof rx ry rz
   end
   begin
      id 7
      name RightToeBase
      direction 0.000000 0.000000 1.000000
      length 2.952750
      axis 0.0 0.0 0.0 xyz
      dof rx ry rz
   end
   begin
      id 8
      name LeftUpLeg
      direction 0.000000 -1.000000 0.000000
      length 18.017682
      axis 0.0 0.0 0.0 xyz
      dof rx ry rz
   end
   begin
      id 9
      name LeftLeg
      direction 0.000000 -1.000000 0.000000
      length 16.881075
      axis 0.0 0.0 0.0 xyz
      dof rx ry rz
   end
   begin
      id 10
      name LeftFoot
      direction 0.000000 -0.258819 0.965926
      length 5.770812
      axis 15.0 0.0 0.0 xyz
      dof rx ry rz
   end
   begin
      id 11
      name LeftToeBase
      direction 0.000000 0.000000 1.000000
      length 2.952750
      axis 0.0 0.0 0.0 xyz
      dof rx ry rz
   end
   begin
      id 12
      name Spine
      direction 0.000000 1.000000 0.000000
      length 0.000000
      axis 0.0 0.0 0.0 xyz
      dof rx ry rz
   end
   begin
      id 13
      name Spine_dum1
      direction 0.000000 1.000000 0.000000
      length 10.941760
      axis 0.0 0.0 0.0 xyz
   end
   begin
      id 14
      name Spine_dum2
      direction 0.000000 1.000000 0.000000
      length 10.941760
      axis 0.0 0.0 0.0 xyz
   end
   begin
      id 15
      name Spine_dum3
      direction 0.000000 1.000000 0.000000
      length 16.646042
      axis 0.0 0.0 0.0 xyz
   end
   begin
      id 16
      name RightShoulder
      direction -1.000000 0.000000 0.000000
      length 7.708937
      axis 0.0 0.0 90.0 xyz
      dof rx ry rz
   end
   begin
      id 17
      name RightArm
      direction -1.000000 0.000000 0.000000
      length 11.521345
      axis 0.0 0.0 90.0 xyz
      dof rx ry rz
   end
   begin
      id 18
      name RightForeArm
      direction -1.000000 0.000000 0.000000
      length 10.175898
      axis 0.0 0.0 90.0 xyz
      dof ry rz rx
   end
   begin
      id 19
      name RightHand
      direction -1.000000 0.000000 0.000000
      length 0.000000
      axis 0.0 0.0 90.0 xyz
      dof rx ry rz
   end
   begin
      id 20
      name RightHand_dum1
      direction -1.000000 0.000000 0.000000
      length 3.937000
      axis 0.0 0.0 90.0 xyz
   end
   begin
      id 21
      name RightHand_dum2
      direction 0.000000 0.000000 0.000000
      length 0.000000
      axis 0.0 0.0 90.0 xyz
   end
   begin
      id 22
      name RightHandThumb1
      direction 0.000000 0.000000 1.000000
      length 3.937000
      axis 0.0 0.0 90.0 xyz
      dof rx rz ry
   end
   begin
      id 23
      name LeftShoulder
      direction 1.000000 0.000000 0.000000
      length 7.708937
      axis 0.0 0.0 -90.0 xyz
      dof rx ry rz
   end
   begin
      id 24
      name LeftArm
      direction 1.000000 0.000000 0.000000
      length 11.521345
      axis 0.0 0.0 -90.0 xyz
      dof rx ry rz
   end
   begin
      id 25
      name LeftForeArm
      direction 1.000000 0.000000 0.000000
      length 10.175898
      axis 0.0 0.0 -90.0 xyz
      dof ry rz rx
   end
   begin
      id 26
      name LeftHand
      direction 1.000000 0.000000 0.000000
      length 0.000000
      axis 0.0 0.0 -90.0 xyz
      dof rx ry rz
   end
   begin
      id 27
      name LeftHand_dum1
      direction 1.000000 0.000000 0.000000
      length 3.937000
      axis 0.0 0.0 -90.0 xyz
   end
   begin
      id 28
      name LeftHand_dum2
      direction 0.000000 0.000000 0.000000
      length 0.000000
      axis 0.0 0.0 -90.0 xyz
   end
   begin
      id 29
      name LeftHandThumb1
      direction 0.000000 0.000000 1.000000
      length 3.937000
      axis 0.0 0.0 -90.0 xyz
      dof rx rz ry
   end
   begin
      id 30
      name Head
      direction 0.000000 1.000000 0.000000
      length 4.527550
      axis 0.0 0.0 0.0 xyz
      dof rx ry rz
   end
:hierarchy
   begin
      root RightUpLeg_dum LeftUpLeg_dum Spine_dum
      RightUpLeg_dum RightUpLeg
      LeftUpLeg_dum LeftUpLeg
      Spine_dum Spine
      RightUpLeg RightLeg
      RightLeg RightFoot
      RightFoot RightToeBase
      LeftUpLeg LeftLeg
      LeftLeg LeftFoot
      LeftFoot LeftToeBase
      Spine Spine_dum1 Spine_dum2 Spine_dum3
      Spine_dum1 RightShoulder
      Spine_dum2 LeftShoulder
      Spine_dum3 Head
      RightShoulder RightArm
      RightArm RightForeArm
      RightForeArm RightHand
      RightHand RightHand_dum1 RightHand_dum2
      RightHand_dum2 RightHandThumb1
      LeftShoulder LeftArm
      LeftArm LeftForeArm
      LeftForeArm LeftHand
      LeftHand LeftHand_dum1 LeftHand_dum2
      LeftHand_dum2 LeftHandThumb1
   end

# File created by Blade
# Date/Time:  Thu Jan 22 15:49:58 2015
# Frame Rate: 120.000 fps
#------------------------------------------------------
:FULLY-SPECIFIED
:DEGREES
343
root 2.887128 37.050093 5.635800 -6.138316 -7.521312 2.521797
RightUpLeg 14.134907 -2.958485 -5.299217
RightLeg -4.379401 -0.000000 0.000000
RightFoot -12.576307 -11.222977 16.072974
RightToeBase 14.445812 -0.000000 -0.000000
LeftUpLeg 14.137599 8.467972 2.761558
LeftLeg -1.548526 -0.000000 0.000000
LeftFoot -9.231633 8.930673 -17.759906
LeftToeBase 8.367589 -0.000000 -0.000000
Spine 0.251344 -4.284577 -2.366674
RightShoulder -4.302240 14.352339 -51.998235
RightArm 54.654657 59.836802 50.228415
RightForeArm 81.917986 -0.000000 114.198730
RightHand 14.787283 0.000000 0.837333
RightHandThumb1 -24.326973 -0.000000 -32.862282
LeftShoulder -29.048597 11.570607 34.653281
LeftArm 165.216749 -34.763530 -113.705907
LeftForeArm -29.233986 0.000000 147.098571
LeftHand -6.957786 -0.000000 3.747280
LeftHandThumb1 -26.253704 0.000000 33.147579
Head 43.428752 14.640737 -2.852212
344
root 2.883653 37.050296 5.628167 -6.110113 -7.473471 2.510562
RightUpLeg 14.104523 -2.985761 -5.277374
RightLeg -4.375970 -0.000000 0.000000
RightFoot -12.584867 -11.255617 16.075578
RightToeBase 14.474536 -0.000000 -0.000000
LeftUpLeg 14.086980 8.462780 2.779011
LeftLeg -1.539405 -0.000000 0.000000
LeftFoot -9.213034 8.880062 -17.773989
LeftToeBase 8.351455 -0.000000 -0.000000
Spine 0.265293 -4.324113 -2.445075
RightShoulder -4.327733 14.361665 -51.984366
RightArm 53.940542 60.099201 49.817153
RightForeArm 82.077848 -0.000000 114.442657
RightHand 14.982305 -0.000000 0.719818
RightHandThumb1 -24.326973 -0.000000 -32.862282
LeftShoulder -29.111423 11.587906 34.614305
LeftArm 165.609088 -34.580954 -113.681923
LeftForeArm -29.447709 -0.000000 147.047168
LeftHand -6.733859 0.000000 3.188291
LeftHandThumb1 -26.253704 0.000000 33.147579
Head 43.440101 14.701314 -2.804533
345
root 2.880059 37.050611 5.620942 -6.075324 -7.422986 2.495059
RightUpLeg 14.108575 -2.910400 -5.248011
RightLeg -4.442978 -0.000000 0.000000
RightFoot -12.558976 -11.324159 16.121344
RightToeBase 14.466779 -0.000000 -0.000000
LeftUpLeg 14.035527 8.435798 2.795149
LeftLeg -1.536094 -0.000000 0.000000
LeftFoot -9.209182 8.866453 -17.735649
LeftToeBase 8.393556 -0.000000 -0.000000
Spine 0.262726 -4.345142 -2.512815
RightShoulder -4.357343 14.354751 -51.997284
RightArm 53.275407 60.371274 49.519872
RightForeArm 82.177912 0.000000 114.732245
RightHand 14.910585 0.000000 0.664286
RightHandThumb1 -24.326973 -0.000000 -32.862282
LeftShoulder -29.153031 11.611749 34.570054
LeftArm 166.002935 -34.419196 -113.633919
LeftForeArm -29.604659 -0.000000 146.999912
LeftHand -6.751808 -0.000000 3.181825
LeftHandThumb1 -26.253704 0.000000 33.147579
Head 43.441062 14.704232 -2.766159
346
root 2.876784 37.050710 5.614867 -6.042004 -7.372447 2.476849
RightUpLeg 14.082591 -2.945864 -5.217694
RightLeg -4.462381 -0.000000 0.000000
RightFoot -12.535691 -11.360768 16.088357
RightToeBase 14.415127 -0.000000 -0.000000
LeftUpLeg 13.985808 8.449897 2.820834
LeftLeg -1.531023 -0.000000 0.000000
LeftFoot -9.189135 8.823638 -17.678361
LeftToeBase 8.252003 -0.000000 -0.000000
Spine 0.259954 -4.365987 -2.568316
RightShoulder -4.402099 14.339641 -52.030398
RightArm 52.578812 60.610051 49.209683
RightForeArm 82.220904 -0.000000 115.007236
RightHand 15.060703 -0.000000 0.663427
RightHandThumb1 -24.326973 -0.000000 -32.862282
LeftShoulder -29.206844 11.640099 34.522737
LeftArm 166.368949 -34.282879 -113.586067
LeftForeArm -29.687925 -0.000000 146.969600
LeftHand -6.511676 -0.000000 2.620671
LeftHandThumb1 -26.253704 0.000000 33.147579
Head 43.458847 14.806958 -2.709554
